<?xml version="1.0" encoding="utf-8"?>
<!DOCTYPE svg PUBLIC "-//W3C//DTD SVG 1.1//EN" "http://www.w3.org/Graphics/SVG/1.1/DTD/svg11.dtd">
<svg version="1.1" id="Layer_1" xmlns="http://www.w3.org/2000/svg" xmlns:xlink="http://www.w3.org/1999/xlink" x="0px" y="0px"
	 viewBox="0 0 1920 1920" enable-background="new 0 0 1920 1920" xml:space="preserve">
<g id="_x23_000000ff">
	<path d="M0,0h1920v1920H0V0 M1.61,1.62C1.63,640.57,1.64,1279.51,1.6,1918.46c638.96,0,1277.92-0.02,1916.88,0.01
		c-0.04-638.95-0.03-1277.9099-0.01-1916.86C1279.52,1.64,640.56,1.62,1.61,1.62z"/>
	<path d="M1252.6801,46.28c36.13,6.25,69.83,25.7,92.9399,54.22c24.24,29.2,37.2,67.57,35.1801,105.5
		c-0.2001,6.21-1.01,12.39-1.89,18.54c143.39,25.4,286.85,50.5,430.23,75.96c-52.3,41.22-104.38,82.75-156.83,123.78
		c-8.2301-1.77-16.5701-2.93-24.8201-4.57c11.52,13.77,22.99,27.6,34.65,41.24c3.2999-1.69,5.83-4.87,9.25-6.57
		c16.64-10.33,39.49-8.91,54.75,3.35c15.1899,11.62,22.13,32.73,16.7,51.09c-4.9,18.44-21.77,32.91-40.75,34.91
		c-18.1,2.42-37.09-6.6-46.63-22.17c-9.87-15.19-9.8199-35.93-0.26-51.25c-15.0499-17.82-29.96-35.75-45-53.58
		c-48.21-8.52-96.4199-17-144.63-25.51c0.42,24.93-0.24,50-4.1599,74.67c-1.4401,7.41-2.5901,15.24-6.8,21.68
		c-2.45,4.01-8.54,5.26-11.95,1.79c-5.16-5.41-6.23-13.24-7.8201-20.24c-4.84-27.75-5.23-56.07-4.5599-84.17
		c-3.61-0.54-7.1801-1.26-10.77-1.8c-18.67-53.38-36.84-106.93-55.5601-160.29c7.3401-39.4-4-81.54-29.4299-112.42
		c-20.9301-25.94-51.5-43.87-84.37-49.41C1250.88,56.09,1251.86,51.2,1252.6801,46.28 M1440.58,386.95
		c-0.4099,18.7-0.1799,37.44,1.4,56.09c1.16,11.77,2.26,23.69,5.88,35.01c2.03-6.2,3.1-12.66,4.0601-19.1
		c3.1599-23.02,3.59-46.31,3.2899-69.51C1450.34,388.54,1445.49,387.57,1440.58,386.95z"/>
	<path d="M37.84,78.78c1.07-4.44,5.64-7.72,10.22-7.01c6.52,0.95,11.43,6.16,14.47,11.68c85.63,148.44,171.44,296.77,256.98,445.26
		c13.92,0.2,27.84,0.03,41.77,0.08c2.2-14.31,10.25-27.13,20.6-37.02c14.64-14.18,33.2-23.64,52.28-30.35
		c38.31-13.08,79.85-15.62,119.77-9.69c22.94,3.53,45.59,10.17,66.04,21.29c12.7,7.02,24.6201,15.88,33.65,27.34
		c6.51,8.25,11.18,18.02,12.86,28.44c9.85,0.22,19.76-0.63,29.56,0.74c3.73-0.0099,7.65-2.45,11.28-0.71
		c58.81,29.01,117.64,57.98,176.46,86.95c-5.9901,11.49-15.23,21.24-26.66,27.43c-19.72,10.84-43.35,12.37-65.18,8.43
		c-29.91-5.36-57.13-21.32-78.66-42.46c-7.1801,4.69-15.64,7.43-24.23,7.63c-5.18,0.09-10.35,0.01-15.52,0.02
		c6.92,12.36,8.98,27.27,5.87,41.07c-3.38,15.23-13.23,28.89-26.65,36.87c-14.71,8.97-33.5,10.79-49.67,4.84
		c-15.28-5.44-27.94-17.66-34-32.68c-6.64-16.05-5.39-34.92,2.98-50.1c-54.63,0.03-109.26,0.02-163.89,0
		c7.32,13.41,9.28,29.68,4.95,44.37c-4.51,15.92-16.27,29.59-31.31,36.49c-12.53,5.85-27.18,6.96-40.46,3.13
		c-16.27-4.59-30.19-16.7-36.97-32.18c-7.54-16.69-6.42-36.86,2.78-52.68c-13.06-2.55-25.05-10.82-31.44-22.57
		c-5.63-10.05-6.87-22.42-3.34-33.37c3.48-11.13,11.74-20.45,21.99-25.86C209.94,388.04,125.61,241.86,41.21,95.71
		C38.23,90.7,36.3,84.6,37.84,78.78z"/>
	<path d="M768.07,81.97c2.37-1.81,5.12,0.43,6.89,2.05c6.12,6.22,10.21,14.08,14.3,21.7c8.7,17.23,15.62,35.35,20.99,53.89
		c1.11-0.16,2.23-0.32,3.35-0.47c-2.55-13.9-4.24-27.98-4.77-42.1c-0.12-6.42-0.11-12.88,1.03-19.22c0.51-2.53,1.26-5.16,3.14-7.04
		c4.53-1.3,6.85,4.3,8.78,7.46c9.3,19.45,13.49,40.89,17.09,62.01c2.13,0.64,4.26,1.3,6.38,2.04c6.14-11.87,13.84-23.37,24.59-31.55
		c3.7-2.57,8.85-5.61,13.25-2.91c4.14,3.37,3.53,9.44,3.02,14.18c-2.37,13.85-8.81,26.73-16.82,38.16
		c5.31,7.99,7.54,17.45,11.05,26.28c3.47,10.4,8.95,20.36,9.7599,31.48c0.46,7.05-2.79,13.74-7.54,18.78
		c32.95,56.46,65.7,113.04,98.62,169.52c-47.45,17.19-94.84,34.58-142.31,51.72c-13.51-63.44-27.24-126.85-40.75-190.29
		c-7.3-0.82-14.59-3.68-19.55-9.26c-6.94-7.69-10.13-17.77-13.69-27.28c-3.2-9.21-7.11-18.22-9.3-27.73
		c-11.01-16.39-20.98-33.7-27.6-52.37c-1.39-4.53-3.13-9.28-2.36-14.08c0.09-1.9,2.55-2.32,3.96-1.59c3.95,1.75,6.88,5.11,9.77,8.21
		c8.38,9.6,15.45,20.29,21.76,31.33c1.42-2.63,2.98-5.19,4.64-7.68c-9.18-15.13-17.44-30.92-23.59-47.54
		c-2.14-6.36-4.68-12.96-3.92-19.79c0.1-2.57,3.07-3.26,5.03-2.2c3.89,1.86,6.97,5,9.95,8.05c12.19,13.28,22.01,28.54,30.96,44.13
		c1.2-0.7,2.41-1.44,3.62-2.17c-7.29-16.31-13.17-33.26-17.56-50.57c-2.06-8.59-3.99-17.31-4.08-26.18
		C766.16,87.89,766.14,84.53,768.07,81.97z"/>
	<path d="M988.6,103.65c4.4-1.58,8.82,1.19,12.76,2.92c18.38,9.77,34.4,23.4,49.39,37.71c9.78,4.01,18.55,10.04,27.8,15.12
		c8.5299,5.1,17.75,10.12,23.3899,18.62c3.8,5.58,4.88,12.49,4.55,19.12c60.12,24.41,120.25,48.8,180.34,73.27
		c-25.24,43.71-50.48,87.41-75.6899,131.12c-49.9401-42.24-99.9-84.45-149.9301-126.57c-6.23,4.31-14.3099,5.99-21.61,3.65
		c-10.2899-3.22-18.87-10.05-28.28-15.08c-7.8-4.81-16.41-8.51-23.07-14.96c-12.84,6.01-26.91,10.18-41.19,9.92
		c-4.81-0.3-11.35-1.13-13.13-6.44c-0.84-5.1,3.22-9.27,6.6-12.52c9.78-8.45,21.84-13.91,34.14-17.6c-0.2-2.15-0.42-4.3-0.54-6.45
		c-12.98-4.98-26.08-9.75-38.48-16.09c-7.37-3.73-14.72-7.65-21.15-12.86c-2.45-2.01-4.75-4.38-5.49-7.57
		c0.93-0.84,1.7-2.08,3.01-2.4c5.64-1.57,11.55-0.52,17.24,0.21c16.37,2.68,32.28,7.62,47.85,13.26c0.41-1.02,0.83-2.04,1.27-3.05
		c-20.79-10.44-40.99-22.44-58.72-37.59c-4.43-4.19-9.61-8.37-11.52-14.36c-0.83-3.39,3.31-4.4,5.83-4.12
		c12.45,1.34,23.97,6.76,35.25,11.86c14.19,6.8,27.89,14.61,40.94,23.39c0.91-1.05,1.84-2.1,2.77-3.15
		c-10.6-8.61-20.51-18.07-29.8-28.08c-5.31-6.2-11.01-12.37-14.14-20.03c-0.74-1.81-1.17-4.97,1.31-5.61
		c5.63-0.8,10.81,2.33,15.72,4.63c17.09,9.19,32.52,21.19,47.12,33.89c2.72-1.15,5.48-2.24,8.32-3.1
		c-11.12-9.83-22.44-19.85-30.7401-32.27C989.34,109.85,986.76,106.58,988.6,103.65z"/>
	<path d="M1536.51,573.71c24.0599-5.28,49.1899-5.52,73.39-1.04c12.73,2.49,25.35,6.34,36.62,12.87
		c6.29,3.77,12.39,8.36,16.26,14.71c0.87,1.34,1.5599,2.86,2.7899,3.95c24.7001,21.25,46.25,47.16,58.3501,77.69
		c8.71,21.76,12,46.04,7.13,69.13c-3.6001,17.56-11.89,34.02-23.3501,47.75c-10.9299,13.06-24.46,23.84-39.24,32.24
		c3.38,2.94,6.55,7.18,5.2201,11.95c-2.03,6.42-8.4901,9.91-14.1101,12.77c-16.83,7.67-35.38,10.47-53.63,12.41
		c-23.09,2.08-46.3999,1.86-69.4099-1c-14.16-1.89-28.37-4.57-41.63-10.02c-5.9401-2.59-12.12-5.7-15.88-11.18
		c-2.74-3.87-1.76-9.25,1.46-12.5c1.28-1.94,4.5-2.8,4.29-5.45c-0.02-33.27,0.04-66.55-0.03-99.82
		c-51.65-18.69-103.23-37.54-154.85-56.32c-3.3-1.04-6.49-3.05-10.0701-2.59c-10.2999,0.64-20.61,1.15-30.8999,1.76
		c-2.88,1.92-5.2001,4.89-8.74,5.66c-5.63,1.78-11.17-2.16-13.89-6.86c-5.3401-9.22-5.7101-20.52-3.76-30.76
		c1.6699-7.92,4.95-16.03,11.46-21.19c3.29-2.67,8.05-3.7,12-1.88c4.33,1.95,6.91,6.25,8.78,10.42
		c18.0599,7.67,35.84,16.08,54.41,22.48c45.2,16.44,90.3999,32.89,135.59,49.36c0.01-28.76-0.03-57.51,0.02-86.26
		c0.1899-9.06,6.38-16.54,13.2-21.85C1509.27,581.65,1522.87,576.86,1536.51,573.71 M1666.5601,629.16
		c0.0299,60.29-0.01,120.57,0.0199,180.86c7.4601-5.61,14.53-11.81,20.5601-18.97c12.65-14.63,21.11-32.97,23.39-52.22
		c2.52-20.02-1.5-40.46-9.48-58.85C1692.9,661.04,1680.67,644.1,1666.5601,629.16z"/>
	<path d="M921.67,612.69c13.6,0.53,27.24,2.8,39.92,7.88c17.8199,6.89,33.02,19.04,46.3,32.55c14.99,15.39,28.4,32.23,42.97,48.01
		c6.15,6.85,12.65,13.37,18.9301,20.11c0.89,1.08,2.48,0.52,3.71,0.61c15.17-1.15,30.33-2.47,45.51-3.6
		c5.42-0.41,10.6799-1.95,16.09-2.59c7.9-0.77,15.5801-2.89,23.4501-3.89c30.71-4.3,61.88-4.82,92.7999-2.92
		c19.84,1.59,39.92,3.55,58.87,9.97c4.88,1.98,10.53,3.95,13.24,8.83c1.66,4.12-2.34,7.47-5.5299,9.28
		c-9.1801,5.04-19.6101,7.1-29.78,9.12c-23.8201,4.19-48.0701,5.46-72.22,5.41c-25.4701-0.31-51.12-1.82-76.02-7.46
		c-3.9701-0.66-7.75-2.92-11.85-2.27c-11.6801,1.41-23.3701,2.7-35.0601,4.07c8.91,9.15,17.4399,18.69,26.46,27.72
		c17.0801,7.71,32.88,17.98,48.01,28.98c16.8401,12.33,32.89,25.76,48.0601,40.1c12.74,12.27,25.11,25.06,35.4399,39.47
		c3.79,5.57,7.64,11.35,9.3301,17.96c0.8199,2.97,0.36,7.06-2.9801,8.22c-5.47,1.5-11.11-0.53-16.25-2.35
		c-15.7599-6.21-30.0599-15.53-43.95-25.11c-16.48-11.59-32.1801-24.29-47.11-37.82c-15.09-13.87-29.71-28.4399-41.89-44.99
		c-3.16-5.08-7.76-8.94-11.8-13.27c-12-11.69-23.84-23.56-35.87-35.22c-21.1499,2.34-42.2499,5.09-63.23,8.66
		c-23.14,3.63-46.89,7.0099-70.21,2.94c-18.54-3.2-35.98-11.66-50.59-23.4301c53.03-4.24,106.04-8.62,159.08-12.64
		C997.76,687.38,959.61,650.14,921.67,612.69z"/>
	<path d="M145.36,821.33c1.27-2.28,4.27-3.28,6.62-2.05c5.07,2.14,8.59,6.65,11.91,10.87c8.4,11.21,14.66,23.8199,20.35,36.5699
		c8.78,20.3101,15.83,41.46,19.86,63.2401c1.37,8.27,2.55,16.71,1.64,25.1c2.97-1.06,5.93-2.17,8.93-3.16
		c2.44,6.73,4.9,13.45,7.32,20.2c13.78,1.04,26.36,8.22,36.26,17.54c11.23,10.59,19.49,24.1,24.72,38.5599
		c-1.74,0.5901-3.48,1.2101-5.23,1.8c6,15,11.25,30.3199,15.39,45.9399c1.99,7.91,3.99,15.91,4.4,24.1001
		c0.2,2.3099-0.33,4.61-1.28,6.73c-3.53-0.61-5.58-3.76-7.52-6.4301c-5.79-8.6899-10.16-18.22-14.39-27.74
		c-5.12-11.87-9.75-23.96-13.71-36.27c-6.54,2.2301-12.98,4.76-19.5,7.04c5.48,13.84,10.41,27.92,14.17,42.34
		c2.35,9.62,4.86,19.41,4.48,29.4c0.05,1.91-0.85,3.65-1.58,5.38c-5.26,0.09-7.9-5.29-10.71-8.9
		c-11.86-18.7799-19.83-39.71-26.84-60.6899c-5.94,2.03-11.8,4.3099-17.73,6.36c5.34,14.2,10.57,28.48,14.44,43.17
		c2.28,8.75,4.5,17.61,4.98,26.6699c-0.05,2.25,0.19,5-1.61,6.6901c-2.04,0.5399-3.55-1.1901-4.82-2.48
		c-4.37-5-7.47-10.9501-10.55-16.79c-8.21-16.24-14.83-33.24-20.51-50.51c-1.52,0.45-3.03,0.92-4.53,1.42
		c-5.52-15.15-7.28-31.4501-5.69-47.47c2.31-12.63,6.98-25.44,16.39-34.57c-2.32-6.81-4.9-13.52-7.29-20.3
		c2.47-0.8701,4.94-1.78,7.39-2.71c-9.64-9.81-16.13-22.15-22.18-34.36c-8.88-18.59-15.96-38.05-20.99-58.03
		c-2.73-11.14-4.94-22.5-5.13-33.99C142.98,829.71,143.11,825.12,145.36,821.33z"/>
	<path d="M311.94,838.95c0.32-4,0.7-9.32,4.91-11.19c4.95-1,9.02,2.93,12.39,5.99c10.18,10.3,17.49,23.01,24.26,35.7
		c8.96,17.35,16.38,35.53,21.71,54.32c3.08,11.44,5.87,23.22,5.17,35.15c6.52-2.89,13.13-5.59,19.68-8.4
		c2.62,6.29,5.34,12.53,7.96,18.82c10.41-4.96,20.81-9.94,31.17-14.98c9.8,21.67,19.6,43.34,29.43,65.01
		c3.88,8.0699,7.6,16.53,8.01,25.62c0.97,16.62-4.82,32.77-12.18,47.41c-6.19,12.23-13.83,23.6799-22.4,34.36
		c-19.22-3.62-38.21-9.72-55.08-19.76c-12.26-7.33-23.51-17.65-28.51-31.35c-10.06-22.65-20.41-45.16-30.58-67.76
		c8.36-3.95,16.63-8.1,25.02-11.98c-2.94-7.22-6.22-14.31-9.01-21.59c7.55-3.06,14.97-6.42,22.53-9.46
		c-9.89-8.46-16.78-19.75-23.29-30.87c-10.86-19.47-19.62-40.15-25.79-61.58C314.35,861.51,311.71,850.32,311.94,838.95z"/>
	<path d="M1614.2,900.87c1.01-5.95,6.8201-10.39,12.8-10.06c51.6801,0,103.37,0,155.05,0c5.46-0.16,10.75,3.68,12.24,8.95
		c1.62,5.24-0.64,11.34-5.3401,14.19c-2.63,1.81-5.8899,2-8.96,1.91c-20.4-0.03-40.8-0.01-61.2-0.01
		c0.0299,247.89,0.0399,495.78,0,743.67c19.39,0.12,38.7799-0.05,58.1699,0.08c3.26-0.21,6.8401,2.8101,5.8,6.29
		c-0.4,2.17-2.6801,3-4.35,3.99c-0.03,49.91,0.0499,99.8099-0.03,149.72c0.49,0.02,1.48,0.0601,1.97,0.0801
		c-2.2999,4.45-4.45,8.98-6.88,13.37c-2.03-4.17-4.36-8.2001-6.1899-12.4601c1.45-3.7,0.76-7.73,0.9-11.58
		c-0.01-46.4,0.0299-92.8-0.01-139.1901c-2.9701-0.0099-5.9401-0.0099-8.88-0.0399c-0.15,49.9099,0.0499,99.83-0.1001,149.74
		c0.5,0.0599,1.5,0.1799,2,0.23c-2.3099,4.46-4.5299,8.96-6.8799,13.4c-2.0801-4.23-4.16-8.4301-6.3501-12.5801
		c0.67-1.11,0.99-2.2999,0.9501-3.5599c-0.05-49.0701,0.02-98.14-0.03-147.2c-3.6-0.01-7.1901,0.0099-10.77-0.03
		c0.04,49.9-0.1,99.7999,0.0701,149.6899l1.73,0.39c-2.38,4.41-4.53,8.9301-6.87,13.37c-2.0901-4.41-4.38-8.71-6.51-13.08
		c1.6599-0.8,0.98-2.73,1.1599-4.13c-0.0499-48.73-0.0299-97.46,0-146.1901c-4.36-0.0399-8.72-0.0199-13.0599-0.0199
		c-0.01,49.9299,0.03,99.85-0.03,149.7799c0.51,0.03,1.52,0.0901,2.02,0.11c-2.4399,4.41-4.6,8.9601-6.87,13.4701
		c-2.25-4.3301-4.47-8.66-6.62-13.02c0.9301-0.8301,1.3199-1.86,1.17-3.1c-0.04-49.0801,0.01-98.16-0.03-147.24
		c-4.3301,0-8.65,0.0199-12.96-0.04c-0.17,49.9399,0.0199,99.88-0.0901,149.83c0.48,0.02,1.4501,0.0801,1.9401,0.11
		c-2.37,4.4501-4.48,9.05-6.9601,13.4501c-2-4.24-4.1799-8.38-6.2799-12.55c1.3999-2.3099,0.7699-5.08,0.9199-7.6
		c-0.0399-47.74,0.01-95.47-0.0299-143.21c-4.3501,0.01-8.6901,0.0199-13.02,0c-0.01,49.9199,0.0299,99.84-0.02,149.7699
		c0.49,0.04,1.48,0.1101,1.97,0.15c-2.3199,4.48-4.63,8.9601-6.79,13.51c-2.2899-4.38-4.4299-8.83-6.73-13.1899
		c1.76-0.64,1.11-2.63,1.27-4.05c-0.05-48.73-0.03-97.46-0.01-146.1899c-4.35,0.01-8.6899,0.0199-13.02-0.02
		c-0.12,49.9199,0.05,99.85-0.09,149.77c0.49,0.0399,1.47,0.12,1.95,0.1599c-2.3099,4.4301-4.38,9-6.9399,13.3101
		c-2.09-4.1901-4.1-8.4301-6.37-12.51c0.37-0.72,0.78-1.42,1.2-2.09c-0.08-49.54-0.02-99.0801-0.0299-148.62
		c-2.9901,0.01-5.9601,0-8.92,0c-0.04,49.9299,0.03,99.86-0.03,149.7999c0.49,0.02,1.48,0.0701,1.97,0.09
		c-2.35,4.4601-4.4399,9.0701-6.96,13.4501c-2-4.24-4.09-8.41-6.28-12.53c0.6801-1.11,1.01-2.2999,0.9701-3.5699
		c-0.01-49.05-0.05-98.11,0.0199-147.16c-1.38-0.88-3.0699-1.48-3.87-2.96c-1.45-2.3201-0.11-5.4801,2.24-6.5701
		c1.7101-1.01,3.78-0.75,5.7101-0.8099c22.0399,0.0599,44.08-0.03,66.12,0.0399c0.11-247.9099,0.01-495.8199,0.0599-743.73
		c-19.76-0.04-39.51,0.06-59.26-0.04C1618.52,915.87,1612.42,908.05,1614.2,900.87z"/>
	<path d="M1410.01,958.01c4.72-3.07,10.41-4.14,15.97-4.13c26.36,0.04,52.73-0.06,79.1,0.06c7.78-0.01,15.5801,3.33,20.4701,9.47
		c5.24,6.3,6.4299,15.66,2.7899,23.03c-3.97,8.44-13.1799,13.73-22.39,13.85c-6.0399,0.03-12.08-0.02-18.11-0.0099
		c0,205.7999-0.0599,411.6,0.03,617.39c14.2-0.05,28.4,0,42.61-0.03c-0.09,43.76,0.13,87.53-0.11,131.29
		c-0.76,18.22-7.35,36.3099-19.21,50.25c-9.3101,11.0399-22.02,19.34-36.13,22.6499c-16.4601,3.9801-34.4,0.86-48.66-8.24
		c-19.5-12.1899-32.04-33.87-35.01-56.46c-1.21-7.99-0.79-16.08-0.86-24.11c0-38.46,0.01-76.91,0-115.36
		c17.05-0.02,34.1,0,51.15-0.01c-0.05-205.78-0.04-411.5701,0-617.35c-9.2001-0.56-18.8301,1.46-27.63-1.95
		c-8.24-3.25-14.8101-11.33-14.91-20.38C1398.6,969.93,1403.24,962.14,1410.01,958.01z"/>
	<path d="M924.46,961.51c4.84-4.1,11.25-6.2,17.58-6.03c27.01,0.01,54.02-0.01,81.04,0.01c9.03,0.05,18.07,5.09,22.22,13.24
		c3.48,6.63,3.11,15.08-0.9401,21.39c-4.47,7.22-12.87,11.55-21.28,11.64c-5.98,0.1-11.97,0.02-17.94,0.04
		c0.01,196.56,0,393.1201,0,589.69c22.6899-0.04,45.38-0.02,68.0699-0.01c-0.0299,77.88-0.02,155.76,0,233.65
		c-59.34,0.01-118.67-0.1-177.9999,0.05c-0.73-11.7001-0.13-23.4601-0.32-35.1901c-0.03-66.15,0.06-132.29-0.05-198.4399
		c21.33-0.1801,42.66-0.05,63.99-0.0601c-0.01-196.5599,0-393.13,0-589.69c-8.25-0.36-16.68,0.92-24.77-1.03
		c-8.74-2.35-16.2-9.74-17.54-18.84C915.25,974.32,918.53,966.35,924.46,961.51z"/>
	<path d="M693.05,982.05c3.9-2.33,8.5-3.23,13.01-3.22c29.96,0.02,59.93,0.01,89.9,0.01c5.94-0.1,11.98,1.77,16.47,5.7599
		c5.96,5.22,8.94,13.71,7.31,21.5c-1.51,8.4901-8.34,15.76-16.72,17.81c-2.94,0.81-6.02,0.72-9.03,0.7401
		c-7.39-0.03-14.77,0-22.15-0.01c0.0099,194.17,0.02,388.34,0,582.52c14.02,6.2999,25.33,17.33,34.43,29.52
		c12.61,17.0699,21.56,36.5399,28.55,56.5c14.71,43,20.51,88.6699,20.64,133.99c-69.65-0.01-139.3,0-208.94,0
		c0.06-45.03,5.83-90.39,20.33-133.14c6.71-19.4,15.26-38.3401,27.2-55.11c9.32-12.9601,20.94-24.86,35.64-31.5701
		c-0.03-194.24,0.01-388.49-0.02-582.73c-8.87-0.02-17.74,0.12-26.6-0.0599c-11.2-0.4901-20.88-10.36-21.26-21.54
		C681.3,994.67,685.77,986.22,693.05,982.05z"/>
	<path d="M513.33,1008.35c1.37-0.95,3.08-0.74,4.66-0.79c30.02,0.07,60.04-0.04,90.06,0.05c7.87,0.63,8.43,13.96,0.93,15.77
		c-12.94,0.3-25.9,0.02-38.85,0.13c0.01,241.59-0.02,483.1899,0.02,724.79c-1.9301-0.01-3.85,0-5.76,0.0299
		c0.03,10.25,0.02,20.51,0.01,30.78c6.53,0.0701,13.05,0,19.59,0.03c7.41-0.11,14.69,3.98,18.62,10.25
		c3.54,5.39,4.59,12.3099,2.79,18.51c-2.08,7.74-8.65,14.0599-16.46,15.87c-3.26,0.83-6.64,0.5699-9.96,0.61
		c-15.66-0.01-31.32-0.01-46.98,0c-4.11-0.03-8.32,0.3199-12.28-1.01c-9.17-2.72-15.85-11.79-15.91-21.33
		c-0.35-11.3,8.87-21.9501,20.21-22.8201c9.43-0.2,18.86-0.03,28.3-0.0699c0.01-10.3,0.05-20.61-0.02-30.9
		c-0.89,0.02-2.67,0.08-3.56,0.11c0.03-241.62,0.02-483.24,0-724.86c-11.26-0.09-22.54,0.19-33.8-0.13
		C508.55,1021.61,507.89,1011.62,513.33,1008.35z"/>
	<path d="M1164.0601,1021.08c4.1899-7.89,12.99-12.98,21.8899-12.95c27.3501-0.03,54.7101,0,82.0701-0.02
		c8.66-0.14,17.4299,4.39,21.85,11.93c3.87,6.35,4.11,14.78,0.5601,21.33c-4.14,7.8199-12.78,12.6901-21.53,12.96
		c-8.6801,0.1901-17.37-0.09-26.04,0.14c0.0701,217.92,0.03,435.8401,0.02,653.75c-3.53-0.03-7.0601-0.02-10.5699,0.01
		c0.0699,7.67-0.04,15.34,0.0599,23.02c21.36,1.5601,42.02,11.0601,57.1801,26.1899c18.0499,17.4801,28.26,42.5901,27.88,67.6901
		c-61.5601-0.03-123.1101-0.02-184.67-0.01c-0.09-20.03,6.14-40.11,18.0699-56.26c15.4801-21.47,40.61-35.71,67.05-37.63
		c-0.02-7.6699-0.03-15.34,0.01-23c-2.84-0.03-5.67-0.03-8.48-0.01c-0.02-217.9399-0.03-435.88,0-653.8199
		c-7.8-0.0601-15.61,0.0599-23.4-0.05c-8.27-0.1799-16.52-4.37-20.99-11.41C1160.77,1036.54,1160.42,1027.83,1164.0601,1021.08z"/>
	<path d="M116.83,1163.95c-0.14-2.3099,1.74-4.3999,4.1-4.1499c28.01-0.05,56.02,0,84.03-0.01c6.79,0.22,13.94-0.91,20.39,1.84
		c9.15,3.8,16.2,11,23.77,17.15c5.31,4.1899,9.14,9.9299,12.29,15.85c3.71,7.15,2.6,15.46,4.01,23.15
		c-12.25,0.64-24.52,0.85-36.79,1.15c-0.76,13.63-0.24,27.2999-0.42,40.95c3.04-0.01,6.08,0,9.12,0c0.08,11.59-0.18,23.2,0.12,34.79
		c2.45,10.4399,4.52,20.98,7.56,31.2799c6.7,23.39,10.76,47.5901,19.79,70.28c0.65,1.89,1.84,3.7001,1.77,5.79
		c0,28.98,0,57.96,0,86.9399c-0.11,6.7101,0.62,13.64-1.69,20.1001c-4.19,13.1299-17.06,22.86-30.86,23.1899
		c-22.67,0.11-45.34,0-68.01,0.0601c-8.13,0.1599-16.4-2.39-22.66-7.66c-7.69-6.16-12.35-15.8301-12.46-25.67
		c-0.04-30.6699,0-61.34-0.02-92.01c0.04-3.03-0.4-6.22,1.06-8.99c10.43-24.8099,26.74-47.25,32.54-73.88
		c4.45-21.1,3.92-42.77,3.89-64.21c2.5-0.02,5.01-0.02,7.51-0.02c-0.03-14.72-0.01-29.4399,0-44.16c-3.59,0-7.17-0.0299-10.75,0.04
		c-6.83,12.1-19.97,19.8-33.63,21.29c-0.55-3.0901-1.07-6.17-1.72-9.2201c9.46-1.21,18.92-5.4399,24.73-13.21
		c1.43-4.41,2.32-9.03,2.8-13.64c0.68-5.27-4.26-8.9-8.36-11.01c-9.31-0.52-18.66-0.39-27.98-0.77c-3.17,0.05-4.75-3.36-4.37-6.12
		C116.97,1176.7,116.67,1170.3199,116.83,1163.95z"/>
	<path d="M155.16,1593.84c60.1,0,120.19,0.01,180.29-0.01c-0.02,7.77,0,15.54-0.02,23.3101c-60.07,0.01-120.15-0.0601-180.22,0.03
		C155.08,1609.39,155.18,1601.61,155.16,1593.84z"/>
	<path d="M171.64,1624.1801c49.07,0.0099,98.15-0.02,147.22,0.0199c-6.26,49.04-12.75,98.0601-18.86,147.12
		c-35.42,0.04-70.84-0.0099-106.25,0.03C186.39,1722.29,179.06,1673.23,171.64,1624.1801z"/>
	<path d="M181.12,1778.58c42.78,0.05,85.56,0.03,128.34,0.01c0.02,7.7101-0.05,15.42,0.05,23.14c-42.8,0.15-85.6,0.05-128.4,0.05
		C181.15,1794.04,181.13,1786.3101,181.12,1778.58z"/>
</g>
<g id="_x23_ffffffff">
</g>
</svg>
