<?xml version="1.0" standalone="no"?>
<!DOCTYPE svg PUBLIC "-//W3C//DTD SVG 20010904//EN"
 "http://www.w3.org/TR/2001/REC-SVG-20010904/DTD/svg10.dtd">
<svg version="1.0" xmlns="http://www.w3.org/2000/svg"
 width="1417.000000pt" height="2850.000000pt" viewBox="0 0 1417.000000 2850.000000"
 preserveAspectRatio="xMidYMid meet">

<g transform="translate(0.000000,2850.000000) scale(0.100000,-0.100000)"
fill="#000000" stroke="none">
<path d="M6110 28486 c-75 -21 -128 -54 -157 -96 -37 -57 -40 -142 -14 -370
74 -664 119 -1641 91 -2005 -6 -88 -16 -378 -20 -645 -8 -471 -14 -573 -45
-825 -38 -304 -121 -713 -151 -746 -36 -39 -33 -40 -351 172 -274 184 -500
320 -968 584 -567 320 -776 450 -947 592 -51 43 -194 179 -318 303 -245 245
-279 270 -402 296 -90 19 -161 12 -241 -23 -108 -49 -163 -140 -160 -268 2
-92 94 -525 183 -870 44 -170 173 -671 286 -1113 235 -922 267 -1037 363
-1297 38 -104 68 -191 67 -192 -1 -1 -78 18 -171 42 -371 98 -731 155 -973
155 -251 0 -344 21 -467 105 -125 86 -199 110 -335 109 -124 -1 -237 -33 -569
-161 l-173 -67 -49 -69 c-76 -109 -110 -235 -90 -342 27 -145 114 -258 271
-352 162 -97 207 -150 359 -420 51 -90 120 -200 153 -245 34 -46 163 -187 287
-313 124 -127 306 -315 404 -418 195 -204 236 -239 407 -347 63 -40 116 -73
118 -75 1 -1 0 -10 -4 -19 -6 -16 -38 -17 -428 -13 -483 4 -453 -1 -801 117
-215 72 -297 90 -407 90 -90 0 -162 -16 -233 -50 -185 -90 -310 -334 -276
-542 6 -40 25 -100 41 -133 43 -90 331 -470 716 -945 157 -195 193 -233 265
-285 46 -33 144 -121 219 -195 200 -200 346 -296 550 -364 58 -19 147 -42 199
-50 60 -10 109 -24 137 -41 61 -36 184 -136 229 -187 160 -182 192 -205 554
-393 122 -64 279 -151 349 -194 706 -436 1153 -541 2427 -570 425 -10 459 -15
886 -121 133 -33 257 -60 276 -60 18 0 56 11 83 25 l49 25 -20 46 c-12 30 -57
86 -123 154 -71 75 -113 128 -135 172 -26 54 -48 78 -129 146 -277 232 -433
457 -834 1202 -162 302 -293 558 -322 632 -14 37 -47 145 -72 240 -31 118 -68
225 -116 338 -127 299 -123 284 -121 520 1 170 16 350 29 350 2 0 54 -33 116
-73 62 -41 181 -117 263 -170 248 -158 456 -319 944 -731 277 -233 684 -590
751 -658 29 -29 98 -109 153 -178 128 -159 201 -231 307 -305 162 -113 309
-270 462 -495 115 -168 136 -208 211 -395 78 -194 127 -293 177 -361 31 -41
57 -60 139 -104 161 -84 190 -135 151 -262 -16 -53 -26 -69 -43 -72 -46 -10
-649 -66 -812 -76 -296 -17 -909 -30 -1443 -30 -456 0 -539 3 -702 21 -162 18
-275 22 -905 28 l-720 8 -205 43 c-247 51 -371 57 -480 21 -136 -44 -180 -90
-180 -188 0 -63 5 -67 135 -113 49 -17 140 -56 202 -86 214 -102 439 -167 633
-181 50 -3 184 0 298 7 221 13 301 11 872 -30 1230 -88 2043 -93 2745 -14 507
56 1157 185 1377 273 115 46 240 110 463 239 432 249 469 276 745 547 107 105
238 225 290 267 311 248 531 580 681 1027 21 64 74 257 118 428 95 368 126
466 238 758 111 287 142 384 192 595 22 96 50 208 61 247 50 181 -5 417 -128
555 -49 54 -166 119 -282 156 -300 96 -601 26 -789 -184 -27 -31 -101 -127
-162 -213 -88 -122 -145 -188 -265 -306 -174 -172 -312 -319 -759 -810 -339
-372 -519 -567 -650 -705 l-81 -85 -160 -582 c-87 -321 -162 -583 -165 -583
-15 0 -39 86 -49 172 -30 259 70 729 208 977 20 36 64 94 98 130 77 82 222
282 584 806 334 483 349 503 460 619 112 116 189 177 416 329 109 73 246 175
324 243 210 181 331 275 510 396 273 184 428 313 588 490 282 312 556 761 725
1188 150 382 185 751 102 1076 -34 129 -102 194 -207 194 -131 0 -260 -44
-1541 -530 -395 -150 -720 -271 -722 -269 -5 5 95 446 139 613 20 77 93 309
161 517 132 398 191 613 222 794 16 96 18 166 17 555 -2 441 -7 552 -54 1080
-8 91 -7 137 4 220 27 190 -8 258 -157 310 -86 30 -170 27 -244 -10 -50 -25
-90 -62 -241 -224 -100 -107 -266 -277 -370 -378 -587 -572 -660 -659 -852
-1013 -122 -224 -180 -309 -425 -625 -352 -453 -418 -559 -535 -855 -28 -71
-58 -141 -65 -155 l-13 -25 -6 25 c-3 14 -28 138 -56 275 -97 494 -330 1448
-415 1700 -107 320 -294 775 -473 1150 -288 605 -499 1009 -731 1399 -94 158
-195 331 -224 384 -109 200 -202 258 -347 218z m672 -1878 c179 -369 367 -831
532 -1300 63 -181 85 -265 126 -488 17 -91 57 -259 90 -375 128 -456 202 -782
235 -1046 45 -357 48 -1322 4 -1307 -10 4 -383 312 -644 532 -110 93 -275 242
-366 332 -176 172 -221 206 -398 298 -128 67 -155 94 -148 146 3 19 36 121 75
226 77 207 102 299 156 559 87 424 110 650 107 1050 -1 288 8 709 28 1353 8
230 11 266 26 283 10 10 23 19 29 19 6 0 73 -127 148 -282z m3939 -928 c17
-10 19 -22 19 -123 0 -62 -9 -186 -21 -277 -14 -113 -23 -266 -29 -485 -11
-444 -29 -540 -214 -1115 -91 -285 -123 -394 -201 -695 -48 -181 -91 -314
-181 -560 -41 -110 -88 -238 -106 -285 -75 -205 -368 -807 -501 -1030 -41 -69
-115 -184 -163 -256 -156 -230 -508 -714 -516 -706 -3 4 -43 106 -88 226 -131
352 -189 470 -344 701 -33 50 -102 155 -153 234 -111 171 -114 189 -58 300 34
69 64 177 146 526 43 186 68 252 97 262 58 19 130 61 179 106 105 96 153 193
217 432 102 383 250 675 505 990 141 175 199 257 389 549 240 368 324 476 745
954 127 144 237 262 245 262 7 0 22 -5 33 -10z m-7248 -1102 c593 -383 783
-500 962 -590 179 -90 600 -347 789 -481 183 -130 256 -197 476 -434 30 -33
107 -95 170 -139 274 -188 1084 -839 1238 -994 124 -124 252 -302 421 -585 82
-137 184 -295 226 -350 111 -147 219 -376 291 -619 17 -57 64 -162 131 -290
131 -254 253 -502 286 -586 100 -253 137 -539 137 -1065 0 -152 8 -386 20
-562 19 -281 19 -305 4 -343 -9 -22 -20 -40 -24 -38 -3 2 -106 109 -227 238
-235 251 -307 320 -673 646 -493 438 -978 848 -1129 954 -50 36 -196 132 -323
214 -274 175 -284 183 -342 265 -107 154 -225 244 -445 337 -234 100 -361 185
-519 349 -109 112 -200 238 -287 396 -26 48 -83 131 -126 185 -43 54 -113 157
-156 229 -117 198 -149 241 -258 355 -199 207 -270 352 -422 850 -35 118 -87
271 -114 340 -54 136 -68 208 -69 343 0 120 -13 177 -156 676 -69 239 -134
471 -145 515 -26 104 -69 386 -57 386 4 0 149 -91 321 -202z m9211 -2029
c-150 -474 -384 -906 -675 -1244 -204 -238 -355 -365 -1059 -895 -481 -362
-585 -445 -690 -550 -144 -144 -229 -263 -342 -480 -41 -80 -120 -217 -175
-305 -134 -215 -161 -263 -303 -530 -153 -289 -189 -347 -209 -343 -14 3 -17
29 -22 168 -4 91 -26 354 -49 585 -45 462 -52 588 -32 652 16 55 35 82 429
619 441 602 459 628 548 789 131 236 187 302 539 629 444 412 495 456 634 547
82 54 163 83 372 133 80 19 352 104 605 189 253 85 461 153 463 152 1 -1 -14
-53 -34 -116z m-11266 -714 c30 -9 81 -39 124 -71 142 -108 209 -127 433 -122
347 7 498 3 585 -15 191 -41 649 -151 816 -196 268 -73 290 -80 326 -104 32
-22 139 -176 404 -583 225 -345 332 -469 603 -704 255 -222 244 -207 242 -317
-1 -92 -15 -307 -37 -563 -16 -197 -21 -212 -77 -254 l-27 -20 -173 33 c-405
79 -652 156 -788 247 -37 24 -132 104 -209 177 -287 268 -772 660 -1046 845
-150 102 -257 210 -423 430 -67 90 -167 210 -221 267 -94 99 -135 157 -320
446 -125 196 -284 325 -481 390 -55 18 -96 35 -92 39 14 13 145 61 202 75 74
18 98 18 159 0z m10669 -2207 c-3 -13 -11 -52 -17 -88 -17 -93 -96 -457 -126
-575 -39 -155 -87 -296 -204 -600 -116 -303 -138 -371 -201 -630 -97 -401
-189 -568 -463 -839 -433 -426 -670 -635 -851 -746 -69 -43 -625 -324 -630
-318 -1 2 11 61 26 132 23 103 42 157 93 265 108 230 161 418 231 821 42 245
58 317 91 432 73 253 201 506 365 724 156 208 228 279 1000 980 217 197 405
367 417 378 21 18 219 84 256 85 14 1 17 -4 13 -21z m-11040 -409 c28 -6 79
-28 115 -50 88 -56 174 -95 265 -121 71 -21 94 -23 258 -19 452 10 541 7 670
-23 127 -30 248 -71 382 -130 72 -32 99 -38 235 -51 274 -28 456 -79 743 -210
375 -171 553 -225 860 -260 197 -22 299 -58 422 -149 110 -81 178 -180 330
-481 74 -148 218 -421 318 -605 100 -184 239 -439 309 -567 69 -128 126 -236
126 -240 0 -8 -206 7 -605 42 -498 45 -888 122 -1082 215 -205 97 -842 452
-998 555 -101 68 -132 95 -250 229 -191 218 -309 285 -660 377 -257 68 -373
140 -675 421 -165 153 -240 232 -350 368 -46 58 -123 150 -170 205 -176 204
-390 484 -390 510 0 8 61 1 147 -16z"/>
<path d="M8128 14470 c-419 -33 -824 -147 -1277 -360 -249 -117 -407 -172
-601 -212 -152 -30 -464 -33 -603 -5 -191 39 -384 118 -584 238 -200 121 -459
225 -673 270 -138 29 -390 32 -523 6 -127 -25 -256 -70 -383 -132 -146 -72
-149 -75 -149 -184 0 -77 3 -94 30 -146 46 -91 63 -97 210 -78 180 23 563 23
680 0 204 -41 336 -93 511 -203 289 -181 536 -279 839 -330 140 -24 459 -25
615 -1 242 37 496 112 730 214 512 225 634 271 855 328 191 49 335 68 520 68
192 0 300 -15 666 -88 151 -30 352 -67 449 -81 216 -31 278 -47 455 -114 290
-109 365 -123 627 -118 219 4 231 8 261 99 27 78 26 220 -1 281 l-20 46 -88
20 c-49 11 -153 30 -232 42 -184 27 -273 53 -457 136 -167 74 -248 96 -625
173 -578 117 -934 154 -1232 131z"/>
<path d="M3837 13048 c-39 -62 -44 -51 99 -209 74 -81 165 -170 202 -198 112
-84 385 -198 954 -397 522 -182 556 -189 958 -189 240 1 312 4 454 24 336 45
759 121 1166 210 576 125 793 160 1110 176 139 7 375 -7 520 -31 94 -16 99
-15 247 10 83 14 167 32 187 40 40 17 64 56 72 120 7 50 -9 84 -81 169 -60 72
-101 91 -280 131 -349 77 -576 101 -874 93 -214 -7 -323 -21 -541 -72 -298
-69 -611 -126 -1288 -235 -568 -91 -705 -105 -897 -89 -147 11 -231 27 -378
70 -474 139 -1398 372 -1564 394 -47 6 -53 5 -66 -17z"/>
<path d="M4890 11553 c-91 -10 -345 -64 -366 -78 -31 -20 -46 -50 -46 -90 0
-91 136 -236 296 -317 90 -45 253 -96 399 -122 156 -29 567 -79 827 -101 410
-34 1609 -89 1790 -82 310 13 958 106 1265 183 251 63 412 142 524 257 l43 45
-36 94 c-43 110 -79 158 -142 189 -79 38 -146 31 -393 -40 -434 -124 -664
-152 -1376 -170 -325 -9 -515 -5 -893 19 -92 5 -279 14 -417 20 -460 19 -588
34 -955 115 -227 50 -439 87 -471 83 -8 0 -30 -3 -49 -5z"/>
<path d="M5185 9917 c-39 -18 -80 -66 -95 -113 -26 -79 6 -218 64 -276 36 -36
180 -108 291 -148 203 -71 379 -99 680 -107 258 -7 463 5 950 53 192 19 380
34 418 34 146 0 638 66 932 125 235 48 311 74 589 208 l148 71 -4 54 c-3 29
-11 60 -19 68 -35 35 -957 26 -1674 -16 -277 -17 -481 -21 -980 -23 l-630 -2
-210 38 c-239 44 -411 56 -460 34z"/>
<path d="M83 8059 c-17 -5 -41 -21 -52 -35 l-21 -27 0 -1674 c0 -1490 2 -1678
16 -1711 19 -47 58 -88 109 -115 40 -22 45 -22 715 -25 473 -2 686 0 713 8 66
19 77 50 77 223 0 162 -8 194 -55 215 -19 9 -170 12 -570 12 l-545 0 0 1515
c0 1652 3 1563 -56 1602 -23 15 -52 18 -164 20 -74 1 -149 -2 -167 -8z"/>
<path d="M3175 8062 c-31 -10 -50 -25 -68 -52 -16 -23 -17 -126 -17 -1408 0
-1524 -3 -1454 62 -1611 143 -343 516 -561 878 -511 191 26 337 98 476 235
134 133 211 278 243 459 7 40 11 518 11 1435 0 1345 -1 1377 -20 1408 -25 42
-67 53 -213 53 -126 0 -167 -10 -202 -50 -20 -22 -20 -40 -25 -1414 l-5 -1391
-33 -67 c-75 -153 -238 -238 -398 -209 -124 23 -228 104 -282 219 l-27 57 -5
1391 c-5 1374 -5 1392 -25 1414 -36 41 -76 50 -207 49 -68 -1 -132 -4 -143 -7z"/>
<path d="M6935 8064 c-75 -8 -186 -36 -256 -65 -192 -79 -367 -255 -445 -447
-62 -155 -58 -74 -62 -1246 -2 -947 -1 -1079 14 -1155 61 -327 318 -590 649
-662 92 -20 274 -15 370 10 236 62 430 219 540 436 75 148 87 214 89 461 1
235 -3 252 -61 279 -28 13 -62 16 -184 13 l-151 -3 -29 -33 -29 -32 0 -158 c0
-87 -5 -185 -11 -217 -23 -124 -100 -223 -217 -278 -57 -27 -77 -31 -147 -31
-150 1 -270 76 -337 212 l-33 67 0 1055 0 1055 27 57 c112 239 419 296 603
111 92 -91 115 -174 115 -405 l0 -148 29 -32 29 -33 151 -3 c166 -4 206 6 232
55 19 35 19 382 0 468 -60 277 -261 515 -519 613 -115 44 -259 66 -367 56z"/>
<path d="M9393 8059 c-17 -5 -41 -21 -52 -35 l-21 -27 0 -1719 c0 -1906 -5
-1764 65 -1794 24 -10 75 -14 167 -14 116 0 137 3 166 20 64 39 62 15 62 820
l0 731 238 -3 237 -3 58 -28 c74 -37 147 -110 184 -184 l28 -58 5 -612 5 -613
33 -32 32 -33 145 -3 c161 -4 197 5 228 57 16 27 17 81 17 624 0 652 -2 678
-59 821 -36 89 -85 169 -151 246 l-48 55 44 48 c99 109 167 246 198 399 14 65
16 167 16 668 0 642 1 630 -56 660 -37 20 -309 21 -345 2 -55 -30 -54 -9 -59
-662 l-5 -605 -33 -67 c-53 -109 -155 -186 -274 -208 -28 -6 -138 -10 -244
-10 l-194 0 0 733 c0 677 -1 735 -18 767 -28 58 -67 70 -212 69 -69 0 -139 -5
-157 -10z"/>
<path d="M12513 8059 c-17 -5 -41 -21 -53 -36 -21 -26 -21 -30 -18 -667 l3
-641 33 -95 c48 -137 101 -221 206 -325 98 -97 177 -149 293 -193 l73 -27 0
-765 c0 -691 2 -768 16 -789 29 -40 73 -51 211 -51 147 0 184 12 215 70 17 33
18 77 18 786 l0 752 59 22 c271 101 476 350 526 637 13 75 15 183 13 676 l-3
587 -33 32 -32 33 -154 0 c-115 0 -160 -4 -180 -15 -57 -30 -56 -20 -56 -637
0 -636 -1 -644 -68 -743 -44 -65 -119 -124 -187 -147 -71 -24 -185 -22 -258 7
-76 29 -167 113 -204 188 l-28 57 -5 607 c-5 596 -5 607 -26 635 -11 15 -36
33 -55 40 -40 14 -259 15 -306 2z"/>
<path d="M775 3593 c-206 -18 -391 -108 -537 -261 -108 -114 -176 -239 -213
-393 -22 -97 -21 -344 3 -407 27 -69 45 -94 641 -882 l542 -715 -4 -100 c-3
-86 -7 -108 -32 -158 -31 -63 -110 -144 -171 -175 -181 -92 -409 -12 -501 176
-27 55 -28 64 -33 247 -7 267 -14 275 -235 275 -136 0 -180 -11 -209 -51 -23
-34 -23 -388 0 -491 70 -307 301 -546 609 -629 103 -28 287 -31 388 -6 158 39
297 118 410 234 76 77 115 133 159 229 63 134 73 186 73 384 0 165 -1 178 -24
220 -35 67 -67 110 -643 873 l-530 702 4 100 c3 85 8 109 31 157 37 76 128
159 204 188 69 26 187 29 249 6 97 -34 177 -108 223 -205 24 -53 26 -67 31
-246 6 -210 10 -228 65 -251 49 -20 295 -20 335 1 57 29 60 42 60 248 0 211
-13 296 -62 414 -121 292 -404 495 -718 515 -41 3 -93 3 -115 1z"/>
<path d="M3148 3584 c-74 -31 -68 113 -68 -1789 0 -1892 -5 -1751 65 -1781 47
-19 283 -19 330 0 68 29 65 -6 65 816 l0 740 375 0 375 0 0 -742 c0 -719 1
-744 20 -775 28 -46 70 -55 232 -51 l138 3 32 33 33 32 3 1710 c2 1866 6 1757
-54 1797 -24 15 -50 18 -179 18 -128 0 -154 -3 -177 -18 -14 -10 -30 -26 -35
-35 -4 -9 -10 -352 -13 -762 l-5 -745 -372 -3 -373 -2 0 739 c0 538 -3 747
-12 765 -23 52 -51 61 -203 63 -109 2 -148 -1 -177 -13z"/>
<path d="M6371 3590 c-62 -13 -115 -52 -148 -107 l-28 -48 0 -1682 0 -1683 33
-32 32 -33 161 0 161 0 34 37 34 38 0 746 0 745 238 -3 c220 -3 240 -5 285
-26 72 -33 159 -121 193 -195 l29 -62 5 -605 c5 -555 6 -608 22 -633 27 -39
75 -49 230 -45 l138 3 32 33 33 32 3 578 c2 377 -1 606 -8 662 -21 161 -94
326 -195 438 l-47 52 61 76 c71 87 132 207 163 320 20 73 22 101 22 379 1 325
-3 362 -55 493 -98 248 -308 431 -574 503 -74 20 -108 22 -445 25 -201 2 -385
-1 -409 -6z m708 -460 c127 -21 227 -98 284 -218 l32 -67 0 -260 0 -260 -31
-65 c-37 -79 -78 -128 -142 -169 -79 -51 -141 -61 -369 -61 l-203 0 0 555 0
555 183 0 c100 0 211 -5 246 -10z"/>
<path d="M9414 3586 c-17 -8 -40 -26 -52 -41 l-22 -28 0 -1377 c0 -1493 -2
-1446 55 -1595 112 -300 391 -509 721 -540 93 -9 228 9 331 44 274 94 489 339
547 623 14 68 16 237 16 1460 0 1352 -1 1384 -20 1415 -25 42 -67 53 -205 53
-128 0 -172 -10 -206 -46 l-24 -26 -5 -1391 -5 -1392 -27 -57 c-33 -71 -102
-146 -165 -180 -186 -101 -420 -23 -515 170 l-33 67 -5 1391 c-5 1374 -5 1392
-25 1414 -36 40 -76 50 -207 50 -80 -1 -134 -5 -154 -14z"/>
<path d="M12680 3591 c-73 -16 -133 -62 -167 -129 -17 -35 -18 -103 -18 -1662
l0 -1625 22 -41 c32 -61 96 -111 157 -125 35 -7 166 -10 421 -7 421 5 432 7
600 88 172 83 292 202 380 375 83 164 89 204 89 555 0 283 -1 311 -22 385 -32
117 -103 252 -174 330 l-60 65 52 57 c108 120 178 278 201 447 7 56 9 177 6
335 -4 207 -8 258 -25 322 -84 312 -322 544 -632 616 -50 12 -147 16 -430 19
-201 1 -381 -1 -400 -5z m782 -480 c104 -40 188 -128 225 -235 15 -44 18 -87
18 -302 l0 -250 -38 -76 c-56 -114 -143 -182 -265 -208 -26 -6 -137 -9 -247
-8 l-200 3 -3 540 c-1 297 0 546 3 554 4 11 46 12 228 9 199 -4 228 -7 279
-27z m31 -1576 c76 -38 158 -126 189 -202 22 -55 23 -70 23 -313 0 -244 -1
-258 -23 -312 -33 -81 -108 -160 -190 -200 l-66 -33 -238 -3 -238 -4 0 552 0
551 243 -3 242 -3 58 -30z"/>
</g>
</svg>
